<svg width="67" height="67" viewBox="0 0 67 67" fill="none" xmlns="http://www.w3.org/2000/svg">
<circle cx="33.5" cy="33.5" r="30.875" fill="#FF8D8D" stroke="black" stroke-width="4" stroke-linecap="round"/>
<path d="M21.9626 42.389C23.2226 42.1163 24.9494 41.9054 26.9392 41.7618C28.9446 41.617 31.2061 41.5417 33.4998 41.5417C35.7936 41.5417 38.0551 41.617 40.0605 41.7618C42.0503 41.9054 43.7771 42.1163 45.037 42.389" stroke="black" stroke-width="4" stroke-linecap="round"/>
<mask id="path-3-outside-1_9_152" maskUnits="userSpaceOnUse" x="18.6665" y="24.875" width="11" height="8" fill="black">
<rect fill="white" x="18.6665" y="24.875" width="11" height="8"/>
<path d="M26.5832 27.0833C26.8246 27.0833 26.9454 27.0833 27.0202 27.1709C27.095 27.2584 27.0781 27.366 27.0443 27.5813C26.9396 28.2478 26.6265 28.869 26.1435 29.352C25.5418 29.9536 24.7257 30.2917 23.8748 30.2917C23.0239 30.2917 22.2079 29.9536 21.6062 29.352C21.1232 28.869 20.8101 28.2478 20.7054 27.5813C20.6715 27.366 20.6546 27.2584 20.7295 27.1709C20.8043 27.0833 20.925 27.0833 21.1665 27.0833L23.8748 27.0833H26.5832Z"/>
</mask>
<path d="M26.5832 27.0833C26.8246 27.0833 26.9454 27.0833 27.0202 27.1709C27.095 27.2584 27.0781 27.366 27.0443 27.5813C26.9396 28.2478 26.6265 28.869 26.1435 29.352C25.5418 29.9536 24.7257 30.2917 23.8748 30.2917C23.0239 30.2917 22.2079 29.9536 21.6062 29.352C21.1232 28.869 20.8101 28.2478 20.7054 27.5813C20.6715 27.366 20.6546 27.2584 20.7295 27.1709C20.8043 27.0833 20.925 27.0833 21.1665 27.0833L23.8748 27.0833H26.5832Z" fill="black"/>
<path d="M26.5832 27.0833C26.8246 27.0833 26.9454 27.0833 27.0202 27.1709C27.095 27.2584 27.0781 27.366 27.0443 27.5813C26.9396 28.2478 26.6265 28.869 26.1435 29.352C25.5418 29.9536 24.7257 30.2917 23.8748 30.2917C23.0239 30.2917 22.2079 29.9536 21.6062 29.352C21.1232 28.869 20.8101 28.2478 20.7054 27.5813C20.6715 27.366 20.6546 27.2584 20.7295 27.1709C20.8043 27.0833 20.925 27.0833 21.1665 27.0833L23.8748 27.0833H26.5832Z" stroke="black" stroke-width="4" stroke-linecap="round" mask="url(#path-3-outside-1_9_152)"/>
<mask id="path-4-outside-2_9_152" maskUnits="userSpaceOnUse" x="37.9165" y="24.875" width="11" height="8" fill="black">
<rect fill="white" x="37.9165" y="24.875" width="11" height="8"/>
<path d="M45.8332 27.0833C46.0746 27.0833 46.1954 27.0833 46.2702 27.1709C46.345 27.2584 46.3281 27.366 46.2943 27.5813C46.1896 28.2478 45.8765 28.869 45.3935 29.352C44.7918 29.9536 43.9757 30.2917 43.1248 30.2917C42.2739 30.2917 41.4579 29.9536 40.8562 29.352C40.3732 28.869 40.0601 28.2478 39.9554 27.5813C39.9215 27.366 39.9046 27.2584 39.9795 27.1709C40.0543 27.0833 40.175 27.0833 40.4165 27.0833L43.1248 27.0833H45.8332Z"/>
</mask>
<path d="M45.8332 27.0833C46.0746 27.0833 46.1954 27.0833 46.2702 27.1709C46.345 27.2584 46.3281 27.366 46.2943 27.5813C46.1896 28.2478 45.8765 28.869 45.3935 29.352C44.7918 29.9536 43.9757 30.2917 43.1248 30.2917C42.2739 30.2917 41.4579 29.9536 40.8562 29.352C40.3732 28.869 40.0601 28.2478 39.9554 27.5813C39.9215 27.366 39.9046 27.2584 39.9795 27.1709C40.0543 27.0833 40.175 27.0833 40.4165 27.0833L43.1248 27.0833H45.8332Z" fill="black"/>
<path d="M45.8332 27.0833C46.0746 27.0833 46.1954 27.0833 46.2702 27.1709C46.345 27.2584 46.3281 27.366 46.2943 27.5813C46.1896 28.2478 45.8765 28.869 45.3935 29.352C44.7918 29.9536 43.9757 30.2917 43.1248 30.2917C42.2739 30.2917 41.4579 29.9536 40.8562 29.352C40.3732 28.869 40.0601 28.2478 39.9554 27.5813C39.9215 27.366 39.9046 27.2584 39.9795 27.1709C40.0543 27.0833 40.175 27.0833 40.4165 27.0833L43.1248 27.0833H45.8332Z" stroke="black" stroke-width="4" stroke-linecap="round" mask="url(#path-4-outside-2_9_152)"/>
</svg>
