<svg width="50" height="50" viewBox="0 0 50 50" fill="none" xmlns="http://www.w3.org/2000/svg">
<path d="M29.1668 31.25L20.8335 39.5833L29.1668 47.9167" stroke="#33363F" stroke-width="3"/>
<path d="M37.6297 17.7083C38.9887 20.0622 39.6629 22.749 39.5761 25.4657C39.4893 28.1823 38.645 30.8206 37.1385 33.0829C35.632 35.3453 33.5233 37.1416 31.0502 38.2692C28.5771 39.3968 25.8381 39.8108 23.1422 39.4645" stroke="#33363F" stroke-width="3" stroke-linecap="round"/>
<path d="M20.8332 18.75L29.1665 10.4167L20.8332 2.08333" stroke="#33363F" stroke-width="3"/>
<path d="M12.3703 32.2917C11.027 29.965 10.3525 27.3125 10.4213 24.6267C10.4901 21.941 11.2994 19.3264 12.76 17.0716C14.2206 14.8167 16.2758 13.0091 18.6986 11.8483C21.1215 10.6874 23.818 10.2184 26.4905 10.4931" stroke="#33363F" stroke-width="3" stroke-linecap="round"/>
</svg>
