<svg width="50" height="50" viewBox="0 0 50 50" fill="none" xmlns="http://www.w3.org/2000/svg">
<path d="M8.66329 29.0221C7.17786 26.5464 7.17786 23.4536 8.66329 20.9779C9.11658 20.2224 9.86753 19.6932 10.7315 19.5204L14.2586 18.8149C14.4687 18.7729 14.6581 18.6602 14.7953 18.4956L22.1708 9.64498C23.3534 8.22592 23.9447 7.51638 24.4723 7.70742C25 7.89846 25 8.82207 25 10.6693L25 39.3307C25 41.1779 25 42.1015 24.4723 42.2926C23.9447 42.4836 23.3534 41.7741 22.1708 40.355L14.7953 31.5044C14.6582 31.3398 14.4687 31.2271 14.2586 31.1851L10.7315 30.4796C9.86753 30.3068 9.11658 29.7776 8.66329 29.0221Z" fill="#222222"/>
<path d="M30.2824 17.6343C32.2258 19.5778 33.3224 22.2105 33.3333 24.959C33.3441 27.7074 32.2682 30.3487 30.3402 32.3074" stroke="#222222" stroke-width="2" stroke-linecap="round"/>
<path d="M38.8685 13.2149C41.978 16.3244 43.7326 20.5369 43.75 24.9344C43.7673 29.3318 42.0459 33.558 38.961 36.6919" stroke="#222222" stroke-width="2" stroke-linecap="round"/>
</svg>
