<svg width="420" height="100" viewBox="0 0 420 100" fill="none" xmlns="http://www.w3.org/2000/svg">
<g clip-path="url(#clip0_6_219)">
<mask id="path-1-inside-1_6_219" fill="white">
<path fill-rule="evenodd" clip-rule="evenodd" d="M88.6838 100C106.217 89.7727 118 70.7623 118 49C118 28.5856 107.632 10.5928 91.8742 0H420V100H88.6838Z"/>
</mask>
<path fill-rule="evenodd" clip-rule="evenodd" d="M88.6838 100C106.217 89.7727 118 70.7623 118 49C118 28.5856 107.632 10.5928 91.8742 0H420V100H88.6838Z" fill="#D885FF"/>
<path d="M88.6838 100L87.1723 97.4086L77.5865 103H88.6838V100ZM91.8742 0V-3H82.034L90.2005 2.48974L91.8742 0ZM420 0H423V-3H420V0ZM420 100V103H423V100H420ZM115 49C115 69.652 103.822 87.6968 87.1723 97.4086L90.1954 102.591C108.613 91.8486 121 71.8726 121 49H115ZM90.2005 2.48974C105.164 12.549 115 29.6264 115 49H121C121 27.5447 110.099 8.63657 93.5478 -2.48974L90.2005 2.48974ZM91.8742 3H420V-3H91.8742V3ZM417 0V100H423V0H417ZM420 97H88.6838V103H420V97Z" fill="black" mask="url(#path-1-inside-1_6_219)"/>
<circle cx="50" cy="50" r="48.5" fill="#D885FF" stroke="black" stroke-width="3"/>
<path d="M32 24H57V35H68V76H32V24Z" fill="white"/>
<path d="M36.1667 72.6562C35.1812 72.6562 34.375 71.8547 34.375 70.875V28.125C34.375 27.1453 35.1812 26.3438 36.1667 26.3438H54.0833V35.25C54.0833 37.2205 55.6846 38.8125 57.6667 38.8125H66.625V70.875C66.625 71.8547 65.8187 72.6562 64.8333 72.6562H36.1667ZM36.1667 21C32.2138 21 29 24.1951 29 28.125V70.875C29 74.8049 32.2138 78 36.1667 78H64.8333C68.7862 78 72 74.8049 72 70.875V38.2002C72 36.3076 71.2497 34.493 69.906 33.157L59.7607 23.0818C58.4169 21.7459 56.6029 21 54.6992 21H36.1667ZM42.4375 49.5C40.9482 49.5 39.75 50.6912 39.75 52.1719C39.75 53.6525 40.9482 54.8438 42.4375 54.8438H58.5625C60.0518 54.8438 61.25 53.6525 61.25 52.1719C61.25 50.6912 60.0518 49.5 58.5625 49.5H42.4375ZM42.4375 60.1875C40.9482 60.1875 39.75 61.3787 39.75 62.8594C39.75 64.34 40.9482 65.5312 42.4375 65.5312H58.5625C60.0518 65.5312 61.25 64.34 61.25 62.8594C61.25 61.3787 60.0518 60.1875 58.5625 60.1875H42.4375Z" fill="black"/>
</g>
<defs>
<clipPath id="clip0_6_219">
<rect width="420" height="100" fill="white"/>
</clipPath>
</defs>
</svg>
