<svg width="420" height="100" viewBox="0 0 420 100" fill="none" xmlns="http://www.w3.org/2000/svg">
<g clip-path="url(#clip0_6_203)">
<mask id="path-1-inside-1_6_203" fill="white">
<path fill-rule="evenodd" clip-rule="evenodd" d="M88.6838 100C106.217 89.7727 118 70.7623 118 49C118 28.5856 107.632 10.5928 91.8742 0H420V100H88.6838Z"/>
</mask>
<path fill-rule="evenodd" clip-rule="evenodd" d="M88.6838 100C106.217 89.7727 118 70.7623 118 49C118 28.5856 107.632 10.5928 91.8742 0H420V100H88.6838Z" fill="#D885FF"/>
<path d="M88.6838 100L87.1723 97.4086L77.5865 103H88.6838V100ZM91.8742 0V-3H82.034L90.2005 2.48974L91.8742 0ZM420 0H423V-3H420V0ZM420 100V103H423V100H420ZM115 49C115 69.652 103.822 87.6968 87.1723 97.4086L90.1954 102.591C108.613 91.8486 121 71.8726 121 49H115ZM90.2005 2.48974C105.164 12.549 115 29.6264 115 49H121C121 27.5447 110.099 8.63657 93.5478 -2.48974L90.2005 2.48974ZM91.8742 3H420V-3H91.8742V3ZM417 0V100H423V0H417ZM420 97H88.6838V103H420V97Z" fill="black" mask="url(#path-1-inside-1_6_203)"/>
<circle cx="50" cy="50" r="48.5" fill="#D885FF" stroke="black" stroke-width="3"/>
<g clip-path="url(#clip1_6_203)">
<rect x="31.98" y="28.0625" width="35.1451" height="44.5078" fill="white"/>
<path d="M69.1429 70.25V70.75H69.6429C71.2211 70.75 72.5 72.0318 72.5 73.625C72.5 75.2182 71.2211 76.5 69.6429 76.5H66.2857H36.0714C30.7898 76.5 26.5 72.1912 26.5 66.875V33.125C26.5 27.8088 30.7898 23.5 36.0714 23.5H66.2857H69.6429C71.2211 23.5 72.5 24.7818 72.5 26.375V60.125C72.5 61.7182 71.2211 63 69.6429 63H69.1429V63.5V70.25ZM63.4286 63.5V63H62.9286H36.0714C33.9359 63 32.2143 64.7346 32.2143 66.875C32.2143 69.0154 33.9359 70.75 36.0714 70.75H62.9286H63.4286V70.25V63.5ZM41.1071 36C39.9053 36 38.9286 36.9857 38.9286 38.1875C38.9286 39.3893 39.9053 40.375 41.1071 40.375H61.25C62.4519 40.375 63.4286 39.3893 63.4286 38.1875C63.4286 36.9857 62.4519 36 61.25 36H41.1071ZM61.25 42.75H41.1071C39.9053 42.75 38.9286 43.7357 38.9286 44.9375C38.9286 46.1393 39.9053 47.125 41.1071 47.125H61.25C62.4519 47.125 63.4286 46.1393 63.4286 44.9375C63.4286 43.7357 62.4519 42.75 61.25 42.75Z" fill="black" stroke="black"/>
</g>
</g>
<defs>
<clipPath id="clip0_6_203">
<rect width="420" height="100" fill="white"/>
</clipPath>
<clipPath id="clip1_6_203">
<rect width="47" height="54" fill="white" transform="translate(26 23)"/>
</clipPath>
</defs>
</svg>
