<svg width="420" height="100" viewBox="0 0 420 100" fill="none" xmlns="http://www.w3.org/2000/svg">
<g clip-path="url(#clip0_6_227)">
<mask id="path-1-inside-1_6_227" fill="white">
<path fill-rule="evenodd" clip-rule="evenodd" d="M88.6838 100C106.217 89.7727 118 70.7623 118 49C118 28.5856 107.632 10.5928 91.8742 0H420V100H88.6838Z"/>
</mask>
<path fill-rule="evenodd" clip-rule="evenodd" d="M88.6838 100C106.217 89.7727 118 70.7623 118 49C118 28.5856 107.632 10.5928 91.8742 0H420V100H88.6838Z" fill="#D885FF"/>
<path d="M88.6838 100L87.1723 97.4086L77.5865 103H88.6838V100ZM91.8742 0V-3H82.034L90.2005 2.48974L91.8742 0ZM420 0H423V-3H420V0ZM420 100V103H423V100H420ZM115 49C115 69.652 103.822 87.6968 87.1723 97.4086L90.1954 102.591C108.613 91.8486 121 71.8726 121 49H115ZM90.2005 2.48974C105.164 12.549 115 29.6264 115 49H121C121 27.5447 110.099 8.63657 93.5478 -2.48974L90.2005 2.48974ZM91.8742 3H420V-3H91.8742V3ZM417 0V100H423V0H417ZM420 97H88.6838V103H420V97Z" fill="black" mask="url(#path-1-inside-1_6_227)"/>
<circle cx="50" cy="50" r="48.5" fill="#D885FF" stroke="black" stroke-width="3"/>
<rect x="25" y="36" width="50" height="27" fill="white"/>
<path d="M36.4 29.75C25.1375 29.75 16 38.8203 16 50C16 61.1797 25.1375 70.25 36.4 70.25H63.6C74.8625 70.25 84 61.1797 84 50C84 38.8203 74.8625 29.75 63.6 29.75H36.4ZM68.7 40.7188C69.8272 40.7188 70.9082 41.1632 71.7052 41.9544C72.5022 42.7456 72.95 43.8186 72.95 44.9375C72.95 46.0564 72.5022 47.1294 71.7052 47.9206C70.9082 48.7118 69.8272 49.1562 68.7 49.1562C67.5728 49.1562 66.4918 48.7118 65.6948 47.9206C64.8978 47.1294 64.45 46.0564 64.45 44.9375C64.45 43.8186 64.8978 42.7456 65.6948 41.9544C66.4918 41.1632 67.5728 40.7188 68.7 40.7188ZM57.65 55.0625C57.65 53.9436 58.0978 52.8706 58.8948 52.0794C59.6918 51.2882 60.7728 50.8438 61.9 50.8438C63.0272 50.8438 64.1082 51.2882 64.9052 52.0794C65.7022 52.8706 66.15 53.9436 66.15 55.0625C66.15 56.1814 65.7022 57.2544 64.9052 58.0456C64.1082 58.8368 63.0272 59.2812 61.9 59.2812C60.7728 59.2812 59.6918 58.8368 58.8948 58.0456C58.0978 57.2544 57.65 56.1814 57.65 55.0625ZM33.85 44.0938C33.85 42.691 34.9869 41.5625 36.4 41.5625C37.8131 41.5625 38.95 42.691 38.95 44.0938V47.4688H42.35C43.7631 47.4688 44.9 48.5973 44.9 50C44.9 51.4027 43.7631 52.5312 42.35 52.5312H38.95V55.9062C38.95 57.309 37.8131 58.4375 36.4 58.4375C34.9869 58.4375 33.85 57.309 33.85 55.9062V52.5312H30.45C29.0369 52.5312 27.9 51.4027 27.9 50C27.9 48.5973 29.0369 47.4688 30.45 47.4688H33.85V44.0938Z" fill="black"/>
</g>
<defs>
<clipPath id="clip0_6_227">
<rect width="420" height="100" fill="white"/>
</clipPath>
</defs>
</svg>
