<svg width="420" height="100" viewBox="0 0 420 100" fill="none" xmlns="http://www.w3.org/2000/svg">
<g clip-path="url(#clip0_6_195)">
<mask id="path-1-inside-1_6_195" fill="white">
<path fill-rule="evenodd" clip-rule="evenodd" d="M88.6838 100C106.217 89.7727 118 70.7623 118 49C118 28.5856 107.632 10.5928 91.8742 0H420V100H88.6838Z"/>
</mask>
<path fill-rule="evenodd" clip-rule="evenodd" d="M88.6838 100C106.217 89.7727 118 70.7623 118 49C118 28.5856 107.632 10.5928 91.8742 0H420V100H88.6838Z" fill="#D885FF"/>
<path d="M88.6838 100L87.1723 97.4086L77.5865 103H88.6838V100ZM91.8742 0V-3H82.034L90.2005 2.48974L91.8742 0ZM420 0H423V-3H420V0ZM420 100V103H423V100H420ZM115 49C115 69.652 103.822 87.6968 87.1723 97.4086L90.1954 102.591C108.613 91.8486 121 71.8726 121 49H115ZM90.2005 2.48974C105.164 12.5489 115 29.6264 115 49H121C121 27.5447 110.099 8.63657 93.5479 -2.48974L90.2005 2.48974ZM91.8742 3H420V-3H91.8742V3ZM417 0V100H423V0H417ZM420 97H88.6838V103H420V97Z" fill="black" mask="url(#path-1-inside-1_6_195)"/>
<circle cx="50" cy="50" r="48.5" fill="#D885FF" stroke="black" stroke-width="3"/>
<g clip-path="url(#clip1_6_195)">
<path d="M66.377 25.6954C67.666 25.1583 69.1377 25.4591 70.126 26.4366L77.001 33.3116C77.6455 33.9562 78.0107 34.8263 78.0107 35.7394C78.0107 36.6525 77.6455 37.5226 77.001 38.1671L70.126 45.0421C69.1377 46.0304 67.666 46.3204 66.377 45.7833C65.0879 45.2462 64.25 44.0001 64.25 42.6036V39.1876H60.8125C59.7275 39.1876 58.707 39.6925 58.0625 40.5626L53.5078 46.632L49.2109 40.9064L52.5625 36.4376C54.5068 33.838 57.5684 32.3126 60.8125 32.3126H64.25V28.8751C64.25 27.4894 65.0879 26.2325 66.377 25.6954ZM40.6172 52.3683L44.9141 58.0939L41.5625 62.5626C39.6182 65.1622 36.5566 66.6876 33.3125 66.6876H26.4375C24.5361 66.6876 23 65.1515 23 63.2501C23 61.3488 24.5361 59.8126 26.4375 59.8126H33.3125C34.3975 59.8126 35.418 59.3077 36.0625 58.4376L40.6172 52.3683ZM70.1152 72.5636C69.127 73.5519 67.6553 73.8419 66.3662 73.3048C65.0772 72.7677 64.2393 71.5216 64.2393 70.1251V66.6876H60.8125C57.5684 66.6876 54.5068 65.1622 52.5625 62.5626L36.0625 40.5626C35.418 39.6925 34.3975 39.1876 33.3125 39.1876H26.4375C24.5361 39.1876 23 37.6515 23 35.7501C23 33.8488 24.5361 32.3126 26.4375 32.3126H33.3125C36.5566 32.3126 39.6182 33.838 41.5625 36.4376L58.0625 58.4376C58.707 59.3077 59.7275 59.8126 60.8125 59.8126H64.25V56.3751C64.25 54.9894 65.0879 53.7325 66.377 53.1954C67.666 52.6583 69.1377 52.9591 70.126 53.9366L77.001 60.8116C77.6455 61.4562 78.0107 62.3263 78.0107 63.2394C78.0107 64.1525 77.6455 65.0226 77.001 65.6671L70.126 72.5421L70.1152 72.5636Z" fill="black"/>
</g>
</g>
<defs>
<clipPath id="clip0_6_195">
<rect width="420" height="100" fill="white"/>
</clipPath>
<clipPath id="clip1_6_195">
<rect width="55" height="55" fill="white" transform="translate(23 22)"/>
</clipPath>
</defs>
</svg>
