<svg width="163" height="33" viewBox="0 0 163 33" fill="none" xmlns="http://www.w3.org/2000/svg">
<path d="M0.875 32V2.90909H8.77273V14.6705H9.17045L17.9205 2.90909H27.125L17.2955 15.8636L27.3523 32H17.9205L11.3864 21.0909L8.77273 24.5V32H0.875ZM37.4233 19.7273V32H29.5824V2.90909H37.1392V14.3295H37.3665C37.8589 12.9375 38.678 11.8532 39.8239 11.0767C40.9697 10.2907 42.3475 9.89773 43.9574 9.89773C45.5009 9.89773 46.8409 10.2481 47.9773 10.9489C49.1231 11.6496 50.0085 12.6155 50.6335 13.8466C51.268 15.0777 51.5805 16.4886 51.571 18.0795V32H43.7301V19.7273C43.7396 18.6477 43.4697 17.8002 42.9205 17.1847C42.3807 16.5691 41.6089 16.2614 40.6051 16.2614C39.9706 16.2614 39.4119 16.4034 38.929 16.6875C38.4555 16.9621 38.0862 17.3598 37.821 17.8807C37.5653 18.392 37.4328 19.0076 37.4233 19.7273ZM61.5213 32.3409C60.1293 32.3409 58.8982 32.1136 57.8281 31.6591C56.7675 31.1951 55.9342 30.4943 55.3281 29.5568C54.7221 28.6193 54.419 27.4261 54.419 25.9773C54.419 24.7841 54.6226 23.7661 55.0298 22.9233C55.437 22.071 56.0052 21.375 56.7344 20.8352C57.4635 20.2955 58.3111 19.8835 59.277 19.5994C60.2524 19.3153 61.3035 19.1307 62.4304 19.0455C63.652 18.9508 64.6321 18.8371 65.3707 18.7045C66.1188 18.5625 66.6586 18.3684 66.9901 18.1222C67.3215 17.8665 67.4872 17.5303 67.4872 17.1136V17.0568C67.4872 16.4886 67.2694 16.053 66.8338 15.75C66.3982 15.447 65.8395 15.2955 65.1577 15.2955C64.4096 15.2955 63.7988 15.4612 63.3253 15.7926C62.8613 16.1146 62.5819 16.6117 62.4872 17.2841H55.2713C55.366 15.9583 55.7874 14.7367 56.5355 13.6193C57.2931 12.4924 58.3963 11.5928 59.8452 10.9205C61.294 10.2386 63.1027 9.89773 65.2713 9.89773C66.8338 9.89773 68.2353 10.0824 69.4759 10.4517C70.7164 10.8116 71.7723 11.3182 72.6435 11.9716C73.5147 12.6155 74.1776 13.3731 74.6321 14.2443C75.0961 15.1061 75.3281 16.0436 75.3281 17.0568V32H67.9986V28.9318H67.8281C67.3925 29.7462 66.8622 30.4044 66.2372 30.9062C65.6217 31.4081 64.9162 31.7727 64.1207 32C63.3348 32.2273 62.4683 32.3409 61.5213 32.3409ZM64.0781 27.3977C64.6747 27.3977 65.2334 27.2746 65.7543 27.0284C66.2846 26.7822 66.7154 26.4271 67.0469 25.9631C67.3783 25.4991 67.544 24.9356 67.544 24.2727V22.4545C67.3357 22.5398 67.1132 22.6203 66.8764 22.696C66.6491 22.7718 66.4029 22.8428 66.1378 22.9091C65.8821 22.9754 65.6075 23.0369 65.3139 23.0938C65.0298 23.1506 64.7315 23.2027 64.419 23.25C63.813 23.3447 63.3158 23.5009 62.9276 23.7188C62.5488 23.9271 62.2647 24.1875 62.0753 24.5C61.8954 24.803 61.8054 25.1439 61.8054 25.5227C61.8054 26.1288 62.0185 26.5928 62.4446 26.9148C62.8707 27.2367 63.4152 27.3977 64.0781 27.3977ZM79.0746 32V10.1818H86.9155V32H79.0746ZM82.995 7.90909C81.9344 7.90909 81.0253 7.55871 80.2678 6.85795C79.5102 6.1572 79.1314 5.31439 79.1314 4.32955C79.1314 3.3447 79.5102 2.50189 80.2678 1.80114C81.0253 1.10038 81.9344 0.75 82.995 0.75C84.0651 0.75 84.9742 1.10038 85.7223 1.80114C86.4799 2.50189 86.8587 3.3447 86.8587 4.32955C86.8587 5.31439 86.4799 6.1572 85.7223 6.85795C84.9742 7.55871 84.0651 7.90909 82.995 7.90909ZM90.7969 32V2.90909H103.354C105.513 2.90909 107.402 3.33523 109.021 4.1875C110.641 5.03977 111.9 6.23769 112.8 7.78125C113.699 9.32481 114.149 11.1288 114.149 13.1932C114.149 15.2765 113.685 17.0805 112.757 18.6051C111.839 20.1297 110.546 21.304 108.879 22.1278C107.222 22.9517 105.286 23.3636 103.07 23.3636H95.5696V17.2273H101.479C102.407 17.2273 103.197 17.0663 103.851 16.7443C104.514 16.4129 105.02 15.9441 105.371 15.3381C105.731 14.732 105.911 14.017 105.911 13.1932C105.911 12.3598 105.731 11.6496 105.371 11.0625C105.02 10.4659 104.514 10.0114 103.851 9.69886C103.197 9.37689 102.407 9.21591 101.479 9.21591H98.6946V32H90.7969ZM127.146 32.3977C124.817 32.3977 122.809 31.9527 121.124 31.0625C119.447 30.1629 118.155 28.875 117.246 27.1989C116.346 25.5133 115.896 23.4962 115.896 21.1477C115.896 18.8939 116.351 16.9242 117.26 15.2386C118.169 13.553 119.452 12.2415 121.109 11.304C122.767 10.3665 124.722 9.89773 126.976 9.89773C128.624 9.89773 130.115 10.1534 131.45 10.6648C132.786 11.1761 133.927 11.9195 134.874 12.8949C135.821 13.8608 136.55 15.035 137.061 16.4176C137.572 17.8002 137.828 19.358 137.828 21.0909V22.9091H118.339V18.5909H130.612C130.603 17.9659 130.442 17.4167 130.129 16.9432C129.826 16.4602 129.414 16.0862 128.893 15.821C128.382 15.5464 127.8 15.4091 127.146 15.4091C126.512 15.4091 125.929 15.5464 125.399 15.821C124.869 16.0862 124.443 16.4555 124.121 16.929C123.808 17.4025 123.643 17.9564 123.624 18.5909V23.25C123.624 23.9508 123.77 24.5758 124.064 25.125C124.357 25.6742 124.779 26.1051 125.328 26.4176C125.877 26.7301 126.54 26.8864 127.317 26.8864C127.857 26.8864 128.349 26.8106 128.794 26.6591C129.249 26.5076 129.637 26.2898 129.959 26.0057C130.281 25.7121 130.518 25.3617 130.669 24.9545H137.828C137.582 26.4697 137 27.786 136.081 28.9034C135.162 30.0114 133.946 30.8731 132.43 31.4886C130.925 32.0947 129.163 32.3977 127.146 32.3977ZM148.925 32.2841C147.372 32.2841 145.942 31.8769 144.636 31.0625C143.338 30.2481 142.297 29.0123 141.511 27.3551C140.734 25.6979 140.346 23.6098 140.346 21.0909C140.346 18.4583 140.753 16.3182 141.567 14.6705C142.391 13.0227 143.452 11.8153 144.749 11.0483C146.056 10.2812 147.429 9.89773 148.869 9.89773C149.948 9.89773 150.895 10.0871 151.71 10.4659C152.524 10.8352 153.206 11.3324 153.755 11.9574C154.304 12.5729 154.721 13.25 155.005 13.9886H155.119V2.90909H162.96V32H155.175V28.4205H155.005C154.702 29.1591 154.266 29.822 153.698 30.4091C153.139 30.9867 152.458 31.446 151.653 31.7869C150.857 32.1184 149.948 32.2841 148.925 32.2841ZM151.823 26.2614C152.543 26.2614 153.158 26.053 153.67 25.6364C154.191 25.2102 154.588 24.6136 154.863 23.8466C155.147 23.0701 155.289 22.1515 155.289 21.0909C155.289 20.0114 155.147 19.0881 154.863 18.321C154.588 17.5445 154.191 16.9527 153.67 16.5455C153.158 16.1288 152.543 15.9205 151.823 15.9205C151.103 15.9205 150.488 16.1288 149.977 16.5455C149.475 16.9527 149.086 17.5445 148.812 18.321C148.547 19.0881 148.414 20.0114 148.414 21.0909C148.414 22.1705 148.547 23.0985 148.812 23.875C149.086 24.642 149.475 25.2339 149.977 25.6506C150.488 26.0578 151.103 26.2614 151.823 26.2614Z" fill="white"/>
</svg>
